<?xml version="1.0" standalone="no"?>
<!DOCTYPE svg PUBLIC "-//W3C//DTD SVG 20010904//EN"
 "http://www.w3.org/TR/2001/REC-SVG-20010904/DTD/svg10.dtd">
<svg version="1.0" xmlns="http://www.w3.org/2000/svg"
 width="245.000000pt" height="245.000000pt" viewBox="0 0 245.000000 245.000000"
 preserveAspectRatio="xMidYMid meet">
<metadata>
Created by potrace 1.11, written by Peter Selinger 2001-2013
</metadata>
<g transform="translate(0.000000,245.000000) scale(0.100000,-0.100000)"
fill="#000000" stroke="none">
<path d="M70 1245 c0 -663 3 -1205 8 -1206 67 -5 309 -2 305 5 -4 5 0 6 7 1
16 -10 310 -13 310 -3 0 4 6 5 13 2 7 -2 17 8 24 26 12 33 7 39 -11 14 -10
-13 -12 -13 -12 5 0 11 4 17 8 15 13 -8 9 31 -4 46 -11 12 -10 12 5 1 23 -18
23 2 0 25 -17 17 -17 17 -1 11 10 -3 20 -2 23 3 4 6 -1 10 -9 10 -12 0 -13 6
-5 32 5 18 9 34 9 35 0 1 -8 0 -17 -3 -11 -4 -14 -3 -7 3 24 18 34 50 20 62
-7 6 -17 7 -21 3 -5 -4 -5 -1 -1 6 4 7 12 9 18 6 14 -9 -1 39 -16 48 -7 5 -7
8 3 8 11 0 11 3 0 17 -8 10 -9 14 -2 10 7 -5 11 -1 11 10 -1 10 1 30 5 45 6
23 5 27 -10 22 -11 -4 -14 -3 -7 3 6 4 16 17 22 28 9 16 7 25 -11 45 -13 14
-15 19 -4 11 22 -17 23 2 1 23 -9 9 -11 16 -4 16 6 0 8 5 4 12 -4 7 -3 8 5 4
6 -4 8 -13 5 -19 -4 -7 -3 -9 1 -4 11 9 14 48 4 42 -4 -3 -10 2 -13 11 -3 8
-2 12 3 9 19 -11 17 31 -3 55 -15 17 -16 20 -3 11 22 -17 23 2 1 23 -9 9 -11
16 -4 16 6 0 8 5 4 12 -4 7 -3 8 5 4 6 -4 8 -13 5 -19 -4 -7 -3 -9 1 -4 11 9
14 48 4 42 -4 -3 -10 2 -13 11 -3 8 -2 12 3 9 19 -11 17 31 -3 55 -15 17 -16
20 -3 11 22 -17 23 2 1 23 -9 9 -11 16 -4 16 6 0 8 5 4 12 -4 7 -3 8 5 4 6 -4
8 -13 5 -19 -4 -7 -3 -9 1 -4 11 9 14 48 4 42 -4 -3 -10 2 -13 11 -3 8 -2 12
3 9 19 -11 17 31 -3 55 -15 17 -16 20 -3 11 22 -17 23 2 1 23 -9 9 -11 16 -4
16 6 0 8 5 4 12 -4 7 -3 8 5 4 6 -4 8 -13 5 -19 -4 -7 -3 -9 1 -4 11 10 14 48
3 41 -4 -3 -8 -2 -9 3 0 4 -2 16 -4 26 -2 9 1 15 6 11 5 -3 9 -1 9 5 0 5 -4
12 -9 15 -5 3 -7 15 -4 26 3 11 -1 28 -8 38 -13 15 -12 16 4 3 10 -8 17 -9 17
-3 0 6 -8 19 -17 28 -17 17 -17 17 -1 11 10 -3 20 -2 23 3 4 6 -1 10 -9 10
-12 0 -13 6 -5 32 5 18 9 34 9 35 0 1 -8 0 -17 -3 -11 -4 -14 -3 -7 3 24 18
34 50 20 62 -7 6 -17 7 -21 3 -5 -4 -5 -1 -1 6 4 7 12 9 18 6 14 -9 -1 39 -16
48 -7 5 -7 8 3 8 11 0 11 3 0 17 -8 10 -9 14 -2 10 7 -5 11 -1 11 10 -1 10 1
30 5 45 6 23 5 27 -10 22 -14 -5 -15 -4 -4 4 8 6 11 17 8 27 -5 11 -3 14 5 9
8 -5 9 -1 4 12 -13 32 -15 55 -5 49 5 -4 6 -11 3 -17 -4 -7 -2 -8 5 -4 6 4 9
12 6 17 -4 5 5 14 19 20 14 7 23 16 20 20 -3 5 2 6 10 3 9 -3 14 -9 11 -13 -2
-4 3 -8 11 -8 8 0 13 6 10 12 -2 6 2 12 10 12 7 0 11 -4 8 -9 -3 -4 -2 -8 3
-9 64 -7 70 -5 66 15 -2 12 -1 15 3 8 3 -6 11 -9 16 -6 6 4 8 2 5 -3 -12 -19
21 -23 35 -5 12 15 11 16 -4 3 -12 -9 -18 -10 -18 -2 0 10 11 14 28 9 4 -2 6
-6 5 -10 -4 -10 -4 -10 35 1 23 7 30 7 26 -1 -5 -7 -1 -9 9 -5 10 3 17 3 17
-2 0 -6 35 -10 133 -15 9 0 17 -5 17 -11 0 -5 5 -3 10 5 8 12 10 12 10 1 0 -8
7 -11 19 -8 14 3 18 1 14 -9 -3 -9 2 -14 13 -15 49 -2 87 -8 92 -15 4 -4 -3
-4 -16 -1 -19 4 -21 3 -12 -8 6 -8 19 -11 27 -8 11 4 14 2 9 -5 -5 -8 -2 -10
8 -6 11 4 16 0 16 -11 0 -9 5 -13 10 -10 6 3 10 1 10 -5 0 -7 7 -10 14 -7 11
4 13 1 9 -10 -4 -11 -2 -14 5 -9 7 4 12 1 12 -8 0 -9 7 -16 16 -16 10 0 14 -6
11 -14 -6 -15 27 -56 44 -56 6 0 5 -8 -2 -21 -6 -12 -7 -19 -1 -15 13 8 22
-29 11 -43 -6 -8 -5 -8 3 -1 20 17 29 11 18 -10 -9 -17 -8 -20 7 -20 14 0 15
-2 4 -9 -10 -6 -10 -10 -1 -16 9 -6 9 -10 -1 -16 -12 -8 -12 -10 0 -18 7 -5
10 -14 7 -20 -17 -28 -15 -52 7 -61 19 -8 20 -9 3 -9 -11 -1 -16 -4 -13 -8 4
-3 1 -13 -6 -21 -9 -13 -9 -14 1 -8 15 9 16 -6 0 -22 -9 -9 -9 -12 1 -12 10 0
11 -3 2 -13 -8 -10 -7 -17 2 -27 9 -10 9 -11 0 -6 -7 4 -13 3 -13 -3 0 -5 6
-12 13 -14 6 -3 2 -6 -11 -6 -21 -1 -22 -2 -8 -17 21 -20 20 -24 -3 -19 -15 3
-18 -2 -15 -25 2 -16 -1 -32 -6 -35 -6 -4 -8 -11 -5 -16 4 -5 1 -9 -5 -9 -6 0
-8 -5 -4 -12 6 -10 4 -10 -8 0 -14 11 -15 9 -13 -17 2 -20 -2 -28 -10 -25 -6
3 -18 -3 -26 -13 -13 -16 -12 -17 3 -5 12 10 18 10 24 1 4 -7 3 -9 -3 -6 -6 4
-16 0 -23 -8 -7 -8 -16 -13 -20 -10 -5 3 -12 0 -16 -6 -4 -8 -3 -9 4 -5 7 4
12 2 12 -3 0 -6 -7 -11 -16 -11 -8 0 -12 -5 -8 -11 4 -7 -2 -6 -17 2 -21 11
-23 10 -11 -3 10 -13 8 -16 -18 -21 -19 -4 -30 -13 -30 -23 0 -10 -3 -14 -7
-11 -3 4 -13 1 -21 -6 -13 -9 -14 -9 -8 0 5 9 2 11 -8 7 -9 -3 -14 -10 -11
-15 3 -4 -4 -6 -15 -4 -14 3 -20 -1 -20 -13 0 -14 -2 -15 -9 -2 -6 8 -7 19 -4
25 4 5 -3 2 -14 -8 -11 -9 -23 -14 -27 -10 -4 4 -4 0 -1 -8 4 -10 0 -16 -9
-16 -8 0 -13 4 -11 8 7 10 -22 5 -32 -6 -4 -4 -2 -5 6 0 10 5 12 4 7 -4 -4 -6
-12 -8 -19 -4 -15 9 -88 10 -93 1 -9 -13 -26 -9 -18 4 6 10 4 11 -7 1 -7 -7
-21 -13 -30 -13 -10 0 -19 -3 -22 -7 -2 -5 -2 -3 -1 4 2 6 -4 14 -13 17 -10 4
-13 2 -10 -8 7 -18 -21 -15 -35 5 -8 11 -9 9 -5 -7 3 -13 -1 -21 -9 -21 -7 0
-13 3 -12 6 2 20 -3 31 -12 26 -6 -4 -8 -10 -5 -15 3 -5 -5 -7 -18 -4 -16 2
-24 -1 -24 -11 0 -11 7 -14 21 -9 15 4 17 3 8 -4 -8 -5 -13 -12 -13 -16 3 -22
-1 -27 -15 -22 -13 5 -14 3 -7 -6 6 -7 10 -28 8 -46 -1 -25 2 -32 12 -28 15 6
10 -7 -14 -35 -11 -13 -11 -16 2 -16 8 0 12 4 9 9 -3 4 2 5 11 1 12 -4 13 -8
5 -13 -8 -5 -9 -13 -4 -21 6 -11 5 -12 -7 -2 -13 10 -16 10 -16 -2 0 -8 6 -15
13 -15 20 0 5 -30 -15 -30 -9 -1 -3 -7 14 -14 25 -10 27 -13 11 -19 -10 -4
-23 -4 -29 0 -9 5 -9 3 -1 -8 6 -8 10 -31 9 -51 -1 -26 2 -38 11 -38 19 0 5
-30 -15 -31 -12 0 -11 -2 4 -8 11 -5 23 -7 27 -4 5 2 8 0 8 -5 0 -13 -29 -24
-42 -15 -7 4 -8 1 -2 -8 12 -19 11 -52 -1 -62 -6 -5 -4 -7 4 -5 8 2 15 14 16
26 1 12 4 24 7 27 3 3 4 -16 3 -42 -2 -26 2 -54 8 -62 10 -12 9 -13 -2 -6 -11
6 -13 2 -9 -19 4 -19 1 -26 -11 -26 -13 0 -14 -2 -2 -9 8 -5 15 -19 16 -30 1
-11 -3 -17 -8 -14 -6 4 -7 1 -3 -6 5 -7 14 -10 21 -7 8 3 19 -2 25 -10 7 -8
17 -14 23 -14 6 0 2 7 -9 16 -16 13 -16 15 -1 10 10 -3 17 0 17 7 0 8 3 7 9
-2 5 -8 8 -19 7 -25 -2 -6 -1 -8 2 -3 2 4 13 12 24 18 18 10 19 8 14 -13 -3
-12 -3 -17 0 -11 3 7 13 13 22 13 15 0 15 2 2 11 -13 9 -13 10 1 6 9 -3 21 -1
27 5 8 8 14 4 21 -15 13 -33 21 -35 15 -5 -2 13 -1 17 2 10 5 -10 9 -10 21 -1
11 10 16 10 23 0 5 -9 10 -10 14 -3 8 13 46 12 46 -1 0 -5 6 -4 14 2 10 8 16
9 21 1 8 -13 25 -13 25 1 0 5 -5 7 -12 3 -6 -4 -8 -3 -4 4 4 7 17 8 36 2 19
-5 30 -5 30 1 0 6 7 6 18 1 21 -12 44 -4 36 11 -5 8 -2 8 7 0 16 -16 29 -17
29 -2 0 5 -4 8 -8 5 -5 -3 -9 1 -9 9 0 11 4 12 13 4 6 -5 14 -6 16 -2 3 4 4 3
2 -2 -1 -6 6 -11 16 -11 10 0 16 5 13 11 -5 15 28 16 46 1 10 -8 13 -8 8 0 -3
6 12 21 36 34 38 21 40 21 22 3 -11 -11 -24 -18 -29 -15 -5 3 -6 0 -2 -6 5 -9
18 -4 42 14 22 17 34 22 34 13 0 -7 7 -3 16 9 8 12 20 20 25 17 5 -4 9 -2 9 3
0 5 9 12 20 15 11 3 18 2 15 -2 -2 -4 2 -8 10 -8 8 0 11 5 8 10 -4 6 0 8 11 4
14 -5 15 -3 6 12 -8 16 -7 18 9 14 10 -2 38 6 62 18 24 13 48 22 53 20 5 -1 3
6 -5 15 -12 16 -12 17 3 12 11 -5 18 0 21 13 3 11 9 19 14 18 20 -3 34 2 28
11 -3 6 2 10 12 10 10 0 23 10 28 22 6 13 20 27 33 33 12 5 20 15 18 21 -2 6
1 11 7 10 7 0 12 3 12 8 0 5 11 13 24 17 17 7 22 15 18 29 -4 16 -2 18 13 10
14 -7 17 -6 16 8 0 9 5 16 12 14 8 -1 11 2 7 8 -3 5 3 20 14 32 12 12 21 26
21 30 0 5 6 6 13 2 7 -5 6 0 -3 11 -13 16 -13 18 0 13 10 -3 19 6 27 24 8 18
17 27 24 22 8 -4 9 -3 5 5 -4 6 -2 19 6 28 11 14 11 16 -2 9 -8 -4 -4 2 10 14
14 12 19 19 13 15 -7 -3 -13 -1 -13 4 0 6 6 11 13 11 6 0 13 14 14 32 1 17 8
36 14 42 9 8 10 8 5 -1 -10 -17 -1 -16 13 1 9 11 9 16 0 22 -8 5 -9 3 -4 -6 6
-9 4 -11 -5 -5 -10 6 -9 11 5 22 11 7 15 13 11 13 -5 0 -2 8 5 17 12 14 12 16
0 9 -9 -6 -12 -5 -9 5 3 8 14 13 24 11 15 -2 16 -1 5 7 -12 8 -12 12 -2 25 7
9 11 23 7 31 -3 8 0 15 7 15 8 0 6 4 -3 10 -8 5 -10 10 -4 10 7 0 15 7 18 16
3 8 2 12 -4 9 -13 -8 -13 1 0 26 6 10 7 19 2 19 -4 0 -8 11 -8 24 0 18 4 22
21 19 19 -4 18 -3 -2 9 -22 13 -22 14 -3 26 17 10 22 44 9 60 -5 7 -4 28 2 37
11 15 6 39 -11 61 -14 17 -13 18 1 7 14 -11 16 -9 17 17 0 17 -4 30 -9 30 -5
0 -9 8 -9 18 0 14 2 15 10 2 8 -13 10 -13 10 2 0 9 -6 18 -13 21 -9 3 -9 9 1
26 16 28 15 36 -3 21 -13 -11 -14 -10 -8 6 3 10 11 23 17 27 6 5 2 6 -9 3 -16
-5 -21 -1 -22 14 -1 11 3 20 8 20 6 0 7 -5 3 -12 -4 -7 -3 -8 4 -4 13 8 5 36
-11 36 -6 0 -7 3 -4 6 3 4 2 15 -4 25 -8 15 -6 17 8 12 16 -6 16 -5 5 10 -8 9
-11 21 -8 26 4 5 1 13 -5 16 -5 4 -8 13 -5 20 7 19 -5 27 -21 14 -16 -14 -17
3 -1 19 7 7 8 12 2 12 -6 0 -10 13 -9 30 2 25 0 28 -13 17 -13 -11 -14 -9 -2
13 12 23 12 24 -4 11 -14 -12 -16 -12 -10 3 3 9 2 16 -2 16 -5 0 -10 15 -11
33 -2 19 -11 39 -24 50 -13 10 -16 17 -8 17 8 0 1 9 -16 21 -28 19 -29 20 -5
14 24 -6 24 -5 -2 10 -16 9 -28 18 -28 21 0 3 4 2 10 -1 6 -3 7 1 4 9 -7 19
-24 21 -24 4 0 -6 -3 -8 -6 -5 -4 4 -1 14 6 22 11 13 11 16 -1 13 -8 -2 -13 3
-11 10 1 8 -2 11 -8 7 -5 -3 -10 1 -10 9 0 9 -7 16 -15 16 -9 0 -12 6 -8 18 3
9 3 14 -2 10 -9 -8 -28 10 -38 35 -4 10 -11 15 -17 12 -6 -4 -7 1 -3 12 6 16
5 16 -10 4 -15 -12 -17 -12 -10 4 5 15 3 17 -12 11 -11 -4 -16 -4 -13 0 4 3 0
13 -8 21 -8 8 -12 18 -10 22 3 4 -1 8 -9 8 -8 0 -12 -3 -10 -7 2 -4 -2 -7 -9
-7 -8 0 -11 8 -8 19 3 12 -1 18 -12 18 -9 0 -16 5 -16 11 0 8 -6 7 -17 -2 -10
-7 -15 -10 -11 -5 7 8 -16 38 -27 36 -4 -1 -15 8 -25 20 -13 15 -19 17 -23 8
-3 -8 -6 -6 -6 5 -1 10 -5 15 -11 12 -5 -3 -10 -1 -10 4 0 6 -7 11 -16 11 -10
0 -14 6 -10 15 3 8 1 15 -4 15 -6 0 -10 -5 -10 -11 0 -5 -10 -3 -22 5 -12 9
-30 16 -40 16 -10 0 -18 5 -18 11 0 6 -9 8 -20 4 -13 -4 -20 -2 -20 7 0 10 -3
9 -10 -2 -8 -13 -10 -12 -10 4 0 14 -5 17 -21 13 -15 -4 -18 -2 -10 7 7 8 5
12 -10 13 -12 1 -17 -3 -13 -10 5 -8 3 -8 -7 1 -7 6 -23 12 -36 12 -13 0 -23
5 -23 11 0 5 -4 8 -9 4 -6 -3 -14 3 -20 12 -6 10 -11 13 -11 7 0 -17 -28 -25
-36 -12 -5 7 -2 8 7 3 8 -5 10 -4 6 0 -11 13 -37 15 -37 4 0 -6 -6 -7 -12 -2
-23 14 -50 14 -42 1 6 -10 5 -10 -7 -1 -11 9 -19 9 -26 2 -6 -6 -10 -5 -10 5
0 8 3 13 7 11 3 -2 12 1 20 6 11 7 8 8 -10 5 -14 -3 -25 -5 -25 -6 0 -1 -12
-4 -27 -6 -16 -1 -28 1 -28 6 0 5 9 7 20 5 11 -2 21 -1 24 3 2 4 -16 8 -40 9
-24 0 -44 -3 -44 -8 0 -5 -5 -9 -11 -9 -5 0 -7 5 -4 10 3 6 2 10 -4 10 -5 0
-12 -6 -14 -12 -4 -9 -6 -9 -6 -1 -1 9 -130 12 -521 13 l-520 1 0 -1206z
m1108 1170 c-3 -3 -9 2 -12 12 -6 14 -5 15 5 6 7 -7 10 -15 7 -18z m497 -115
c3 -6 -1 -7 -9 -4 -18 7 -21 14 -7 14 6 0 13 -4 16 -10z m-781 -538 c2 -4 -4
-8 -14 -8 -10 0 -16 4 -14 8 3 4 9 8 14 8 5 0 11 -4 14 -8z m236 -2 c0 -5 -8
-10 -17 -10 -15 0 -16 2 -3 10 19 12 20 12 20 0z m-370 -10 c-8 -5 -19 -10
-25 -10 -5 0 -3 5 5 10 8 5 20 10 25 10 6 0 3 -5 -5 -10z m770 -196 c0 -8 -19
-13 -24 -6 -3 5 1 9 9 9 8 0 15 -2 15 -3z m-790 -118 c0 -3 -4 -8 -10 -11 -5
-3 -10 -1 -10 4 0 6 5 11 10 11 6 0 10 -2 10 -4z m1580 -210 c0 -2 -8 -10 -17
-17 -16 -13 -17 -12 -4 4 13 16 21 21 21 13z m-1585 -196 c-3 -5 -11 -10 -16
-10 -6 0 -7 5 -4 10 3 6 11 10 16 10 6 0 7 -4 4 -10z m0 -160 c-3 -5 -11 -10
-16 -10 -6 0 -7 5 -4 10 3 6 11 10 16 10 6 0 7 -4 4 -10z m0 -160 c-3 -5 -11
-10 -16 -10 -6 0 -7 5 -4 10 3 6 11 10 16 10 6 0 7 -4 4 -10z m121 -74 c0 -14
-5 -21 -9 -17 -4 4 -5 15 -1 24 9 24 12 21 10 -7z m-121 -86 c-3 -5 -11 -10
-16 -10 -6 0 -7 5 -4 10 3 6 11 10 16 10 6 0 7 -4 4 -10z m121 -164 c-1 -19
-4 -32 -7 -30 -5 3 -5 26 0 57 3 20 8 3 7 -27z m-116 -70 c0 -3 -4 -8 -10 -11
-5 -3 -10 -1 -10 4 0 6 5 11 10 11 6 0 10 -2 10 -4z m1044 -85 c3 -5 -1 -11
-9 -14 -9 -4 -12 -1 -8 9 6 16 10 17 17 5z"/>
<path d="M735 1510 c3 -5 8 -10 11 -10 2 0 4 5 4 10 0 6 -5 10 -11 10 -5 0 -7
-4 -4 -10z"/>
<path d="M2323 1185 c0 -8 4 -12 9 -9 5 3 6 10 3 15 -9 13 -12 11 -12 -6z"/>
<path d="M735 390 c3 -5 8 -10 11 -10 2 0 4 5 4 10 0 6 -5 10 -11 10 -5 0 -7
-4 -4 -10z"/>
<path d="M1940 340 c-9 -6 -10 -10 -3 -10 6 0 15 5 18 10 8 12 4 12 -15 0z"/>
<path d="M826 148 c3 -5 10 -6 15 -3 13 9 11 12 -6 12 -8 0 -12 -4 -9 -9z"/>
<path d="M1596 122 c-3 -5 1 -9 9 -9 8 0 12 4 9 9 -3 4 -7 8 -9 8 -2 0 -6 -4
-9 -8z"/>
<path d="M830 69 c0 -5 5 -7 10 -4 6 3 10 8 10 11 0 2 -4 4 -10 4 -5 0 -10 -5
-10 -11z"/>
<path d="M1023 25 c-3 -9 -3 -18 -1 -21 3 -3 8 4 11 16 6 23 -1 27 -10 5z"/>
<path d="M1146 12 c-3 -5 1 -9 9 -9 8 0 12 4 9 9 -3 4 -7 8 -9 8 -2 0 -6 -4
-9 -8z"/>
</g>
</svg>
