<svg xmlns="http://www.w3.org/2000/svg" width="42" height="39" viewBox="0 0 42 39"><g><g><path fill="#ed7e00" d="M.66 31.478c0-1.508 1.218-2.734 2.715-2.734h17.886l9.63-19.088a.667.667 0 0 1 .082-.27c.178-.31.22-.68.118-1.036a1.476 1.476 0 0 0-.683-.87c-.687-.399-1.549-.192-1.923.46a.677.677 0 0 1-1.267-.341c0-.117.03-.234.091-.342.179-.312.22-.68.119-1.037a1.473 1.473 0 0 0-.684-.87c-.699-.407-1.571-.206-1.945.448a.677.677 0 0 1-.927.25.686.686 0 0 1-.249-.934l.002-.003C26.1.798 31.522-.555 35.97 2.031c2.132 1.24 3.677 3.172 4.349 5.438.685 2.309.392 4.75-.824 6.872l-.001.002a.677.677 0 0 1-.928.25.687.687 0 0 1-.248-.933c.375-.653.11-1.515-.587-1.92-.687-.4-1.548-.192-1.923.46a.677.677 0 0 1-1.266-.343c0-.116.029-.233.09-.34.18-.313.222-.68.121-1.037a1.477 1.477 0 0 0-.684-.87c-.607-.354-1.35-.23-1.773.254-.006.016-.006.032-.013.048l-8.598 17.044 8.971-9.036a2.686 2.686 0 0 1 1.92-.799c.726 0 1.408.284 1.92.8.51.514.792 1.2.792 1.933 0 .732-.281 1.418-.792 1.933L24.876 33.473a4.428 4.428 0 0 1-2.495.74H3.375c-1.497 0-2.715-1.227-2.715-2.735zM32.396 7.97c.02.07.037.141.052.211a2.808 2.808 0 0 1 2.301.243 2.836 2.836 0 0 1 1.362 1.887 2.822 2.822 0 0 1 2.301.243c.31.18.576.41.79.672.533-3.069-.926-6.278-3.908-8.012-2.982-1.734-6.472-1.402-8.844.597.333.056.662.172.973.353a2.834 2.834 0 0 1 1.362 1.887 2.807 2.807 0 0 1 2.301.243 2.836 2.836 0 0 1 1.31 1.676zM2.018 31.478c0 .754.609 1.367 1.357 1.367h19.006c.623 0 1.204-.163 1.686-.473l11.47-11.552c.255-.256.395-.6.395-.966 0-.367-.14-.71-.395-.967-.512-.513-1.412-.514-1.92 0L22.473 30.11H3.375c-.748 0-1.357.613-1.357 1.367zm39.145 6.353c.265.267.265.7 0 .967a.674.674 0 0 1-.96 0l-.486-.49c-.015 0-.028.006-.043.006H.635v-3.418H24.79l15.413-15.523a.675.675 0 0 1 .96 0c.265.267.265.7 0 .966l-8.684 8.746 5.77 5.811 2.001 2.016zM26.71 34.896h9.62l-4.81-4.844zm11.656 2.051l-.679-.684H1.993v.684zM4.708 8.234c0-.378.304-.683.679-.683H6.79a5.448 5.448 0 0 1 1.1-2.665l-.995-1.003a.686.686 0 0 1 0-.966.675.675 0 0 1 .96 0l.995 1.002a5.378 5.378 0 0 1 2.645-1.107V1.398c0-.378.304-.684.68-.684.374 0 .678.306.678.684v1.414a5.378 5.378 0 0 1 2.645 1.107l.996-1.002a.675.675 0 0 1 .96 0c.265.267.265.7 0 .966l-.996 1.003a5.46 5.46 0 0 1 1.099 2.665h1.404c.375 0 .679.305.679.683a.681.681 0 0 1-.679.684h-1.406a5.456 5.456 0 0 1-1.098 2.665l.995 1.002a.686.686 0 0 1-.48 1.167.674.674 0 0 1-.48-.2l-.995-1.003a5.378 5.378 0 0 1-2.645 1.107v1.415a.681.681 0 0 1-.68.683.681.681 0 0 1-.678-.683v-1.415A5.378 5.378 0 0 1 8.85 12.55l-.996 1.003a.674.674 0 0 1-.96 0 .686.686 0 0 1 0-.967l.996-1.002a5.457 5.457 0 0 1-1.099-2.665H5.387a.681.681 0 0 1-.68-.684zm3.394 0c0 2.263 1.826 4.102 4.072 4.102 2.247 0 4.073-1.84 4.073-4.102 0-2.262-1.826-4.101-4.073-4.101-2.246 0-4.072 1.84-4.072 4.101z"/></g></g></svg>