<svg xmlns="http://www.w3.org/2000/svg" width="40" height="39" viewBox="0 0 40 39"><g><g><path fill="#ed7e00" d="M4.473.41C7.569 4.1 28.226 30.984 29.637 33.12c.685 1.038.66 2.393-.064 3.535-.714 1.125-1.944 1.755-3.132 1.604-.621-.079-1.54-.408-2.389-1.527-1.335-1.76-3.007-5.162-4.623-8.451-1.2-2.444-2.438-4.962-3.44-6.585-.168.102-.302.18-.427.255-.359.21-.668.393-1.595 1.019-.34.23-.734.324-1.139.272-.829-.105-2.275.077-4.536-5.462C7.181 15.058 3.921 5.58 3.503 3.88 2.806 1.042 3.006.568 3.34.244c.191-.187.704-.348 1.134.165zm23.915 33.517C27.018 31.85 9.265 8.64 5.536 3.897c-.345-.439-.814-1.208-.374.187 1.135 3.598 5.06 14.552 6.45 16.417.863 1.158.895 1.542 1.407 1.28.038.005.064.002.108-.027.964-.651 2.186-1.371 2.686-1.69a.75.75 0 0 1 1.022.206c1.119 1.635 2.487 4.42 3.935 7.368 1.586 3.227 3.225 6.564 4.475 8.21.424.56.904.889 1.386.95.614.078 1.273-.285 1.68-.925.322-.51.512-1.288.077-1.946zM39.41 8.558c-1.891 1.814-3.66 3.586-5.08 5.01-.927.93-1.66 1.665-2.177 2.16-.81.778-2.05 1.152-3.404 1.027a5.689 5.689 0 0 1-.403-.051 6.057 6.057 0 0 1-2.86-1.312l-4.241 4.129a.75.75 0 0 1-1.054-.016.73.73 0 0 1 .016-1.042l4.238-4.126c-2.075-2.474-2.222-5.156-.318-6.983L31.58.207a.751.751 0 0 1 1.054.016.73.73 0 0 1-.016 1.041l-6.475 6.21L27.43 8.75l5.992-5.747a.752.752 0 0 1 1.054.016.73.73 0 0 1-.016 1.042l-5.976 5.732 1.323 1.31 5.957-5.714a.752.752 0 0 1 1.054.016.731.731 0 0 1-.016 1.042l-5.94 5.698 1.405 1.39c.302-.301.636-.635 1-1.001A318.16 318.16 0 0 1 38.372 7.5a.751.751 0 0 1 1.054.016.731.731 0 0 1-.016 1.042zm-8.295 6.113l.098-.094-6.138-6.073c-1.58 1.633-.542 3.852.982 5.405.778.793 1.784 1.283 2.83 1.379.906.083 1.738-.148 2.228-.617zM16.901 26.216C14.727 28.635 8.62 35.32 6.496 37.18c-.847.743-1.897.948-2.883.787a4.184 4.184 0 0 1-2.31-1.203c-1.042-1.088-1.574-3.043.356-4.972 2.651-2.649 6.514-5.648 9.42-7.815a.751.751 0 0 1 1.045.145.732.732 0 0 1-.147 1.032c-2.87 2.14-6.675 5.094-9.258 7.674-1.017 1.017-1.139 2.083-.333 2.923.77.804 2.208 1.128 3.121.327 1.837-1.61 7.28-7.504 10.28-10.84a.751.751 0 0 1 1.052-.062.73.73 0 0 1 .062 1.04z"/></g></g></svg>