<svg xmlns="http://www.w3.org/2000/svg" width="11" height="22" viewBox="0 0 11 22"><g><g><path fill="#fff" d="M10.586.004L7.947 0c-2.964 0-4.88 2.125-4.88 5.414V7.91H.416c-.23 0-.415.201-.415.45v3.616c0 .248.186.449.415.449h2.653v9.127c0 .247.185.448.414.448h3.461c.23 0 .415-.2.415-.448v-9.127h3.102c.23 0 .415-.201.415-.449l.001-3.617a.469.469 0 0 0-.122-.317.4.4 0 0 0-.293-.132H7.358V5.794c0-1.017.225-1.533 1.45-1.533l1.777-.001c.23 0 .415-.201.415-.449V.453c0-.248-.186-.448-.414-.449z"/></g></g></svg>