<svg xmlns="http://www.w3.org/2000/svg" width="39" height="39" viewBox="0 0 39 39"><g><g><path fill="#ed7e00" d="M38.909 35.088v2.552c0 .383-.257.638-.642.638H1.007c-.386 0-.643-.255-.643-.638v-2.552c0-.383.257-.638.642-.638h1.927V.638c0-.383.257-.638.643-.638h32.12c.386 0 .643.255.643.638V34.45h1.928c.385 0 .642.255.642.638zm-34.69-.638h9.635v-7.018c0-.382.257-.638.643-.638h10.279c.385 0 .642.256.642.638v7.018h9.636V1.276H4.218zm14.775 0v-6.38h-3.855v6.38zm1.285 0h3.854v-6.38H20.28zm17.345 2.552v-1.276H1.648v1.276zM13.212 3.828v3.828c0 .382-.257.637-.642.637H7.43c-.385 0-.642-.255-.642-.637V3.828c0-.383.257-.638.642-.638h5.14c.385 0 .642.255.642.638zm-1.285.638H8.073v2.552h3.854zm1.285 6.38v3.827c0 .383-.257.638-.642.638H7.43c-.385 0-.642-.255-.642-.638v-3.828c0-.382.257-.638.642-.638h5.14c.385 0 .642.256.642.638zm-1.285.637H8.073v2.552h3.854zm4.497 3.19v-3.828c0-.382.257-.638.643-.638h5.139c.385 0 .642.256.642.638v3.828c0 .383-.257.638-.642.638h-5.14c-.385 0-.642-.255-.642-.638zm1.285-3.19v2.552h3.855v-2.552zm8.352 3.19v-3.828c0-.382.256-.638.642-.638h5.14c.385 0 .642.256.642.638v3.828c0 .383-.257.638-.643.638h-5.14c-.385 0-.642-.255-.642-.638zm1.284-.638H31.2v-2.552h-3.855zm-10.92 7.656v-3.828c0-.383.256-.638.642-.638h5.139c.385 0 .642.255.642.638v3.828c0 .382-.257.638-.642.638h-5.14c-.385 0-.642-.256-.642-.638zm1.284-3.19v2.552h3.855V18.5zm8.352 3.19v-3.828c0-.383.256-.638.642-.638h5.14c.385 0 .642.255.642.638v3.828c0 .382-.257.638-.643.638h-5.14c-.385 0-.642-.256-.642-.638zm1.284-.638H31.2V18.5h-3.855zm-14.133-3.19v3.828c0 .382-.257.638-.642.638H7.43c-.385 0-.642-.256-.642-.638v-3.828c0-.383.257-.638.642-.638h5.14c.385 0 .642.255.642.638zm-1.285.638H8.073v2.552h3.854zm4.497-10.845V3.828c0-.383.257-.638.643-.638h5.139c.385 0 .642.255.642.638v3.828c0 .382-.257.637-.642.637h-5.14c-.385 0-.642-.255-.642-.637zm1.285-3.19v2.552h3.855V4.466zm8.352 3.19V3.828c0-.383.256-.638.642-.638h5.14c.385 0 .642.255.642.638v3.828c0 .382-.257.637-.643.637h-5.14c-.385 0-.642-.255-.642-.637zm1.284-.638H31.2V4.466h-3.855zM15.14 24.88c0-.382.257-.637.643-.637h7.709c.385 0 .642.255.642.637 0 .383-.257.639-.642.639h-7.71c-.385 0-.642-.256-.642-.639z"/></g></g></svg>