<svg xmlns="http://www.w3.org/2000/svg" width="20" height="19" viewBox="0 0 20 19"><g><g><path fill="#fff" d="M20 11.649v7.35h-4.287v-6.858c0-1.723-.62-2.899-2.171-2.899-1.185 0-1.89.793-2.2 1.56-.113.273-.142.655-.142 1.038V19H6.912s.058-11.617 0-12.82H11.2v1.817l-.029.041h.029v-.041c.57-.872 1.587-2.118 3.864-2.118 2.82 0 4.936 1.832 4.936 5.77zM4.823 2.215c0 1.23-.93 2.216-2.425 2.216H2.37C.932 4.43 0 3.445 0 2.215 0 .957.96 0 2.426 0c1.468 0 2.37.957 2.397 2.215zM.255 6.18H4.54V19H.255z"/></g></g></svg>