<svg xmlns="http://www.w3.org/2000/svg" width="48" height="39" viewBox="0 0 48 39"><g><g><path fill="#ed7e00" d="M11.2 32.8c0 .861-.72 1.566-1.6 1.566-.88 0-1.6-.705-1.6-1.565s.72-1.565 1.6-1.565c.88 0 1.6.704 1.6 1.565zm20.8 0c0 .861-.72 1.566-1.6 1.566-.88 0-1.6-.705-1.6-1.565s.72-1.565 1.6-1.565c.88 0 1.6.704 1.6 1.565zm16-9.388c0 .47-.32.782-.8.782H40v9.39h-4.056c-.382 2.672-2.696 4.694-5.544 4.694-2.848 0-5.162-2.022-5.544-4.695h-9.712c-.382 2.673-2.696 4.695-5.544 4.695-2.848 0-5.161-2.022-5.544-4.695H2.8c-1.52 0-2.8-1.252-2.8-2.738V3.773C0 2.053 1.36.723 3.12.723h33.84c1.68 0 3.04 1.33 3.04 3.05V22.63h3.2v-2.348c0-.47.32-.782.8-.782.48 0 .8.313.8.782v2.348h2.4c.48 0 .8.313.8.782zM1.6 22.63h36.8V3.773c0-.782-.64-1.486-1.52-1.486H3.12c-.88 0-1.52.626-1.52 1.486v7.12h8c.48 0 .8.313.8.783 0 .47-.32.782-.8.782h-8v2.347h11.2c.48 0 .8.314.8.783 0 .47-.32.782-.8.782H1.6zm12 10.17c0-2.19-1.76-3.912-4-3.912s-4 1.722-4 3.913c0 2.19 1.76 3.912 4 3.912s4-1.722 4-3.912zm20.8 0c0-2.19-1.76-3.912-4-3.912s-4 1.722-4 3.913c0 2.19 1.76 3.912 4 3.912s4-1.722 4-3.912zm4-8.606H1.6v6.65c0 .627.56 1.174 1.2 1.174h1.256c.359-2.506 2.415-4.439 5.019-4.67l.057-.004.197-.014a5.854 5.854 0 0 1 .542 0c.066.003.131.009.197.014l.057.004c2.603.231 4.66 2.164 5.018 4.67H24.8c.4-2.66 2.72-4.694 5.52-4.694h.08c2.848 0 5.161 2.021 5.543 4.694H38.4z"/></g></g></svg>