<svg xmlns="http://www.w3.org/2000/svg" width="15" height="11" viewBox="0 0 15 11"><g><g><path fill="#ed7e01" d="M1.34 11c-.338 0-.63-.105-.879-.31l4.251-3.967.293.198c.319.22.577.39.775.512.198.123.461.247.79.375.33.128.637.191.922.191h.016c.285 0 .592-.063.921-.191.33-.128.593-.252.79-.375.2-.122.457-.293.775-.512l.295-.197 4.25 3.966c-.249.205-.541.31-.878.31zm2.406-4.915L0 9.581V3.547c.245.255.527.482.845.68 1.186.751 2.151 1.37 2.9 1.858zM15 3.547V9.58l-3.744-3.494c.798-.52 1.767-1.14 2.907-1.86a4.54 4.54 0 0 0 .837-.68zm-.397-3.18c.264.245.397.54.397.883 0 .412-.137.805-.41 1.18a3.859 3.859 0 0 1-1.021.96l-3.07 1.99-.847.55-.126.083-.23.155c-.182.122-.332.22-.452.297-.12.075-.265.16-.436.253a2.64 2.64 0 0 1-.481.211c-.15.047-.29.07-.419.07h-.016c-.128 0-.268-.023-.419-.07a2.64 2.64 0 0 1-.481-.21 8.62 8.62 0 0 1-.435-.254c-.12-.076-.271-.175-.452-.297l-.231-.156-.125-.083-.845-.551-1.348-.874C2.2 3.887 1.629 3.516 1.44 3.39a4.033 4.033 0 0 1-.98-.903C.154 2.105 0 1.75 0 1.422 0 1.016.116.677.347.406.58.136.91 0 1.34 0h12.322c.362 0 .676.123.941.367z"/></g></g></svg>