<svg xmlns="http://www.w3.org/2000/svg" width="26" height="19" viewBox="0 0 26 19"><g><g><path fill="#fff" d="M2.322 18.999c-.585 0-1.092-.18-1.522-.534l7.367-6.853c.185.123.355.238.509.343.551.378.999.673 1.342.884.343.211.8.427 1.371.647.571.221 1.103.331 1.596.331h.03c.493 0 1.025-.11 1.595-.33.57-.22 1.028-.437 1.371-.648.344-.211.791-.506 1.343-.884l.51-.34 7.366 6.85c-.43.354-.937.534-1.522.534zm4.17-8.488L0 16.55V6.126c.425.441.914.833 1.466 1.174a504.72 504.72 0 0 1 5.027 3.211zM26 6.126V16.55l-6.49-6.036c1.383-.898 3.063-1.969 5.04-3.213A7.867 7.867 0 0 0 26 6.126zM25.31.635c.459.423.689.93.689 1.525 0 .71-.237 1.39-.71 2.037a6.679 6.679 0 0 1-1.77 1.66 12814.942 12814.942 0 0 0-6.79 4.385l-.218.143-.4.268a30.21 30.21 0 0 1-.783.513c-.208.13-.46.277-.754.439a4.567 4.567 0 0 1-.835.364c-.26.08-.503.121-.725.121h-.029c-.223 0-.464-.04-.725-.121a4.562 4.562 0 0 1-.835-.364 14.96 14.96 0 0 1-.754-.439c-.208-.13-.47-.301-.784-.513l-.4-.268-.217-.143A975.94 975.94 0 0 0 5.47 7.779a602.924 602.924 0 0 1-2.974-1.923C1.896 5.48 1.33 4.96.798 4.298S0 3.023 0 2.456C0 1.755.2 1.17.602.702c.402-.467.974-.701 1.72-.701h21.356c.63 0 1.173.211 1.633.634z"/></g></g></svg>