<svg xmlns="http://www.w3.org/2000/svg" width="21" height="17" viewBox="0 0 21 17"><g><g><path fill="#fff" d="M20.42.314a8.684 8.684 0 0 1-2.737 1.042A4.302 4.302 0 0 0 14.54 0a4.301 4.301 0 0 0-4.197 5.27A12.246 12.246 0 0 1 1.462.785a4.286 4.286 0 0 0 1.333 5.73 4.317 4.317 0 0 1-1.95-.54v.054A4.302 4.302 0 0 0 4.3 10.24a4.37 4.37 0 0 1-1.946.073 4.313 4.313 0 0 0 4.024 2.982 8.666 8.666 0 0 1-5.35 1.836c-.348 0-.691-.02-1.028-.058A12.233 12.233 0 0 0 6.604 17c7.924 0 12.257-6.541 12.257-12.214l-.014-.556A8.65 8.65 0 0 0 21 2.011a8.634 8.634 0 0 1-2.473.676A4.318 4.318 0 0 0 20.42.314z"/></g></g></svg>