<svg xmlns="http://www.w3.org/2000/svg" width="15" height="15" viewBox="0 0 15 15"><g><g><path fill="#ed7e01" d="M7.495 15.013A7.497 7.497 0 0 1 .001 7.514C0 3.373 3.356.015 7.495.015a7.497 7.497 0 0 1 7.495 7.5c0 4.14-3.356 7.498-7.495 7.498zm5.432-3.83a6.51 6.51 0 0 0 1.108-3.2h-3.75a18.02 18.02 0 0 1-.235 2.534c1.015.144 1.98.368 2.877.667zm-7.284-3.2c.025.825.1 1.637.241 2.417a18.447 18.447 0 0 1 1.611-.074c.547 0 1.084.028 1.61.074.142-.78.217-1.592.242-2.417zm3.704-.938c-.025-.824-.1-1.637-.241-2.416-.527.046-1.064.073-1.61.073-.548 0-1.084-.027-1.611-.073a16.38 16.38 0 0 0-.242 2.416zm2.935 4.947a15.55 15.55 0 0 0-2.415-.55 15.25 15.25 0 0 1-.763 2.427 6.567 6.567 0 0 0 3.178-1.877zm-5.242 2.06c.151.012.302.024.455.024.154 0 .304-.012.455-.023.399-.83.721-1.755.96-2.736-.465-.04-.937-.065-1.415-.065s-.95.024-1.415.065c.24.981.562 1.905.96 2.736zm-1.153-.183a15.25 15.25 0 0 1-.764-2.427c-.842.124-1.65.308-2.414.55a6.568 6.568 0 0 0 3.178 1.877zm-.947-3.352a18.038 18.038 0 0 1-.235-2.534H.955a6.51 6.51 0 0 0 1.109 3.2 16.436 16.436 0 0 1 2.876-.666zM2.064 3.845a6.511 6.511 0 0 0-1.109 3.2h3.75c.023-.87.097-1.722.235-2.534a16.413 16.413 0 0 1-2.876-.666zm.645-.808a15.55 15.55 0 0 0 2.414.55c.197-.859.452-1.674.764-2.428a6.568 6.568 0 0 0-3.178 1.878zM7.949.976c-.15-.01-.3-.024-.454-.024-.153 0-.304.013-.455.024-.398.83-.72 1.754-.96 2.735.466.041.937.065 1.415.065s.95-.024 1.416-.065c-.24-.98-.562-1.905-.961-2.735zm1.155.183c.312.754.567 1.57.763 2.428a15.55 15.55 0 0 0 2.415-.55 6.567 6.567 0 0 0-3.178-1.878zm.946 3.352c.139.812.212 1.663.235 2.534h3.75a6.512 6.512 0 0 0-1.108-3.2c-.897.298-1.862.522-2.877.666z"/></g></g></svg>